<?xml version="1.0" encoding="UTF-8" ?>
<!DOCTYPE svg PUBLIC "-//W3C//DTD SVG 1.1//EN" "http://www.w3.org/Graphics/SVG/1.1/DTD/svg11.dtd">
<svg width="284pt" height="352pt" viewBox="0 0 284 352" version="1.1" xmlns="http://www.w3.org/2000/svg">
<path fill="#ffffff" d=" M 0.00 0.00 L 284.00 0.00 L 284.00 352.00 L 0.00 352.00 L 0.00 0.00 Z" />
<path fill="#ff8400" d=" M 147.87 15.75 C 154.00 10.98 161.40 6.69 169.45 7.31 C 156.61 11.82 147.41 23.45 143.14 36.05 C 138.39 47.55 142.79 61.16 151.33 69.67 C 156.13 74.75 162.92 77.25 167.86 82.17 C 175.02 88.68 180.19 98.08 179.63 107.97 C 179.47 114.68 176.55 120.85 173.63 126.75 C 174.13 121.14 174.15 115.01 170.87 110.16 C 167.71 105.28 161.72 103.11 156.11 102.94 C 150.17 102.64 143.38 103.63 139.23 108.33 C 136.30 111.49 136.42 116.14 136.93 120.14 C 137.36 123.52 139.71 126.90 138.21 130.33 C 137.46 132.44 135.24 133.67 133.10 133.84 C 125.46 134.66 117.70 131.03 113.00 125.04 C 105.02 115.74 101.74 103.03 102.96 90.95 C 104.50 74.89 112.21 60.19 121.11 47.02 C 128.56 35.48 137.12 24.42 147.87 15.75 Z" />
<path fill="#ff8400" d=" M 88.69 70.61 C 91.78 66.69 94.74 62.51 96.13 57.66 C 96.56 64.14 96.27 70.78 94.03 76.95 C 92.57 81.89 88.91 85.88 87.85 90.97 C 86.41 96.41 87.28 102.64 90.97 107.03 C 94.43 111.34 97.81 116.26 98.27 121.93 C 98.75 125.39 96.47 129.12 92.99 129.91 C 79.06 132.54 64.22 121.99 62.25 107.92 C 61.69 101.13 65.41 94.81 70.11 90.21 C 76.68 84.05 83.07 77.66 88.69 70.61 Z" />
<path fill="#ff8400" d=" M 169.07 65.43 C 181.59 69.90 194.62 75.20 203.65 85.35 C 208.57 91.01 211.65 98.59 210.78 106.16 C 209.82 113.83 206.18 121.14 200.65 126.54 C 196.41 130.60 189.80 132.44 184.30 129.91 C 181.96 128.63 183.12 125.93 184.28 124.28 C 189.82 114.31 193.69 102.82 192.60 91.30 C 190.66 78.90 179.50 70.80 169.07 65.43 Z" />
<path fill="#ff8400" d=" M 47.46 139.40 C 49.79 138.20 52.51 138.66 55.03 138.56 C 110.69 138.62 166.36 138.55 222.02 138.60 C 225.23 138.45 228.17 140.72 229.24 143.67 C 231.27 148.38 227.30 154.32 222.15 154.25 C 165.42 154.32 108.68 154.24 51.95 154.29 C 48.58 154.50 44.95 152.65 43.88 149.30 C 42.07 145.72 44.07 141.20 47.46 139.40 Z" />
<path fill="#ff8400" d=" M 56.07 160.14 C 108.59 160.17 161.11 160.14 213.64 160.16 C 212.72 168.62 206.68 175.31 199.88 179.87 C 190.80 186.09 180.20 189.44 169.69 192.29 C 169.06 194.46 168.35 196.61 167.86 198.82 C 159.23 244.17 150.60 289.52 142.00 334.88 C 141.46 337.79 139.02 340.38 136.10 340.97 C 133.47 340.05 131.16 337.81 130.72 335.00 C 122.44 291.67 114.26 248.31 105.97 204.98 C 105.31 200.80 104.52 196.62 102.86 192.71 C 90.47 190.02 78.02 185.95 67.76 178.26 C 61.80 173.91 57.15 167.57 56.07 160.14 Z" />
</svg>
